<?xml version="1.0" standalone="no"?><!DOCTYPE svg PUBLIC "-//W3C//DTD SVG 1.1//EN" "http://www.w3.org/Graphics/SVG/1.1/DTD/svg11.dtd"><svg t="1573151276795" class="icon" viewBox="0 0 1024 1024" version="1.1" xmlns="http://www.w3.org/2000/svg" p-id="11206" xmlns:xlink="http://www.w3.org/1999/xlink" width="200" height="200"><defs><style type="text/css"></style></defs><path d="M222.608696 0h578.782608A155.826087 155.826087 0 0 1 957.217391 155.826087v712.347826a155.826087 155.826087 0 0 1-155.826087 155.826087h-578.782608A155.826087 155.826087 0 0 1 66.782609 868.173913v-712.347826A155.826087 155.826087 0 0 1 222.608696 0z m0.089043 64.77913a89.043478 89.043478 0 0 0-89.043478 89.043479v714.573913a89.043478 89.043478 0 0 0 89.043478 89.043478h579.227826a89.043478 89.043478 0 0 0 89.043478-89.043478V153.822609a89.043478 89.043478 0 0 0-89.043478-89.043479H222.653217z" fill="#57C28E" p-id="11207"></path><path d="M222.697739 64.77913h579.227826a89.043478 89.043478 0 0 1 89.043478 89.043479v714.573913a89.043478 89.043478 0 0 1-89.043478 89.043478H222.653217a89.043478 89.043478 0 0 1-89.043478-89.043478V153.822609a89.043478 89.043478 0 0 1 89.043478-89.043479z" fill="#CBF8E2" p-id="11208"></path><path d="M552.870957 471.262609c26.846609 0 48.172522-15.62713 48.172521-35.305739C601.043478 416.322783 579.673043 400.695652 552.870957 400.695652H248.520348c-24.041739 0-45.412174 16.11687-48.172522 35.795478 0 19.634087 21.370435 34.726957 48.172522 34.726957h304.350609z m-114.777044-178.086957c26.846609 0 48.217043-15.62713 48.217044-35.305739 0-19.634087-21.370435-35.261217-48.217044-35.261217H248.520348c-24.041739 0-45.412174 16.11687-48.172522 35.795478 0 19.634087 21.370435 34.726957 48.172522 34.726956H438.093913z m59.436522 541.072696l301.412174-301.412174c12.510609-12.510609 11.397565-33.480348-2.493218-47.415652-13.890783-13.890783-34.860522-15.003826-47.37113-2.493218l-301.412174 301.412174c-11.264 11.219478-9.794783 32.589913 2.849391 47.771826 13.890783 13.890783 34.504348 14.647652 47.014957 2.137044z" fill="#57C28E" p-id="11209"></path></svg>